<svg class="rich-terminal" viewBox="0 0 1458 879.5999999999999" xmlns="http://www.w3.org/2000/svg">
    <!-- Generated with Rich https://www.textualize.io -->
    <style>

    @font-face {
        font-family: "Fira Code";
        src: local("FiraCode-Regular"),
                url("https://cdnjs.cloudflare.com/ajax/libs/firacode/6.2.0/woff2/FiraCode-Regular.woff2") format("woff2"),
                url("https://cdnjs.cloudflare.com/ajax/libs/firacode/6.2.0/woff/FiraCode-Regular.woff") format("woff");
        font-style: normal;
        font-weight: 400;
    }
    @font-face {
        font-family: "Fira Code";
        src: local("FiraCode-Bold"),
                url("https://cdnjs.cloudflare.com/ajax/libs/firacode/6.2.0/woff2/FiraCode-Bold.woff2") format("woff2"),
                url("https://cdnjs.cloudflare.com/ajax/libs/firacode/6.2.0/woff/FiraCode-Bold.woff") format("woff");
        font-style: bold;
        font-weight: 700;
    }

    .terminal-484838164-matrix {
        font-family: Fira Code, monospace;
        font-size: 20px;
        line-height: 24.4px;
        font-variant-east-asian: full-width;
    }

    .terminal-484838164-title {
        font-size: 18px;
        font-weight: bold;
        font-family: arial;
    }

    .terminal-484838164-r1 { fill: #e0e0e0 }
.terminal-484838164-r2 { fill: #c5c8c6 }
.terminal-484838164-r3 { fill: #e0e0e0;font-weight: bold }
.terminal-484838164-r4 { fill: #121212 }
.terminal-484838164-r5 { fill: #191919 }
.terminal-484838164-r6 { fill: #1e1e1e }
.terminal-484838164-r7 { fill: #282828 }
.terminal-484838164-r8 { fill: #eaeaea;font-weight: bold }
.terminal-484838164-r9 { fill: #b0b0b0;font-weight: bold }
.terminal-484838164-r10 { fill: #515151 }
    </style>

    <defs>
    <clipPath id="terminal-484838164-clip-terminal">
      <rect x="0" y="0" width="1438.6" height="828.5999999999999" />
    </clipPath>
    <clipPath id="terminal-484838164-line-0">
    <rect x="0" y="1.5" width="1439.6" height="24.65"/>
            </clipPath>
<clipPath id="terminal-484838164-line-1">
    <rect x="0" y="25.9" width="1439.6" height="24.65"/>
            </clipPath>
<clipPath id="terminal-484838164-line-2">
    <rect x="0" y="50.3" width="1439.6" height="24.65"/>
            </clipPath>
<clipPath id="terminal-484838164-line-3">
    <rect x="0" y="74.7" width="1439.6" height="24.65"/>
            </clipPath>
<clipPath id="terminal-484838164-line-4">
    <rect x="0" y="99.1" width="1439.6" height="24.65"/>
            </clipPath>
<clipPath id="terminal-484838164-line-5">
    <rect x="0" y="123.5" width="1439.6" height="24.65"/>
            </clipPath>
<clipPath id="terminal-484838164-line-6">
    <rect x="0" y="147.9" width="1439.6" height="24.65"/>
            </clipPath>
<clipPath id="terminal-484838164-line-7">
    <rect x="0" y="172.3" width="1439.6" height="24.65"/>
            </clipPath>
<clipPath id="terminal-484838164-line-8">
    <rect x="0" y="196.7" width="1439.6" height="24.65"/>
            </clipPath>
<clipPath id="terminal-484838164-line-9">
    <rect x="0" y="221.1" width="1439.6" height="24.65"/>
            </clipPath>
<clipPath id="terminal-484838164-line-10">
    <rect x="0" y="245.5" width="1439.6" height="24.65"/>
            </clipPath>
<clipPath id="terminal-484838164-line-11">
    <rect x="0" y="269.9" width="1439.6" height="24.65"/>
            </clipPath>
<clipPath id="terminal-484838164-line-12">
    <rect x="0" y="294.3" width="1439.6" height="24.65"/>
            </clipPath>
<clipPath id="terminal-484838164-line-13">
    <rect x="0" y="318.7" width="1439.6" height="24.65"/>
            </clipPath>
<clipPath id="terminal-484838164-line-14">
    <rect x="0" y="343.1" width="1439.6" height="24.65"/>
            </clipPath>
<clipPath id="terminal-484838164-line-15">
    <rect x="0" y="367.5" width="1439.6" height="24.65"/>
            </clipPath>
<clipPath id="terminal-484838164-line-16">
    <rect x="0" y="391.9" width="1439.6" height="24.65"/>
            </clipPath>
<clipPath id="terminal-484838164-line-17">
    <rect x="0" y="416.3" width="1439.6" height="24.65"/>
            </clipPath>
<clipPath id="terminal-484838164-line-18">
    <rect x="0" y="440.7" width="1439.6" height="24.65"/>
            </clipPath>
<clipPath id="terminal-484838164-line-19">
    <rect x="0" y="465.1" width="1439.6" height="24.65"/>
            </clipPath>
<clipPath id="terminal-484838164-line-20">
    <rect x="0" y="489.5" width="1439.6" height="24.65"/>
            </clipPath>
<clipPath id="terminal-484838164-line-21">
    <rect x="0" y="513.9" width="1439.6" height="24.65"/>
            </clipPath>
<clipPath id="terminal-484838164-line-22">
    <rect x="0" y="538.3" width="1439.6" height="24.65"/>
            </clipPath>
<clipPath id="terminal-484838164-line-23">
    <rect x="0" y="562.7" width="1439.6" height="24.65"/>
            </clipPath>
<clipPath id="terminal-484838164-line-24">
    <rect x="0" y="587.1" width="1439.6" height="24.65"/>
            </clipPath>
<clipPath id="terminal-484838164-line-25">
    <rect x="0" y="611.5" width="1439.6" height="24.65"/>
            </clipPath>
<clipPath id="terminal-484838164-line-26">
    <rect x="0" y="635.9" width="1439.6" height="24.65"/>
            </clipPath>
<clipPath id="terminal-484838164-line-27">
    <rect x="0" y="660.3" width="1439.6" height="24.65"/>
            </clipPath>
<clipPath id="terminal-484838164-line-28">
    <rect x="0" y="684.7" width="1439.6" height="24.65"/>
            </clipPath>
<clipPath id="terminal-484838164-line-29">
    <rect x="0" y="709.1" width="1439.6" height="24.65"/>
            </clipPath>
<clipPath id="terminal-484838164-line-30">
    <rect x="0" y="733.5" width="1439.6" height="24.65"/>
            </clipPath>
<clipPath id="terminal-484838164-line-31">
    <rect x="0" y="757.9" width="1439.6" height="24.65"/>
            </clipPath>
<clipPath id="terminal-484838164-line-32">
    <rect x="0" y="782.3" width="1439.6" height="24.65"/>
            </clipPath>
    </defs>

    <rect fill="#292929" stroke="rgba(255,255,255,0.35)" stroke-width="1" x="1" y="1" width="1456" height="877.6" rx="8"/><text class="terminal-484838164-title" fill="#c5c8c6" text-anchor="middle" x="728" y="27">LocalQL&#160;TUI&#160;workbench</text>
            <g transform="translate(26,22)">
            <circle cx="0" cy="0" r="7" fill="#ff5f57"/>
            <circle cx="22" cy="0" r="7" fill="#febc2e"/>
            <circle cx="44" cy="0" r="7" fill="#28c840"/>
            </g>

    <g transform="translate(9, 41)" clip-path="url(#terminal-484838164-clip-terminal)">
    <rect fill="#121212" x="0" y="1.5" width="341.6" height="24.65" shape-rendering="crispEdges"/><rect fill="#121212" x="341.6" y="1.5" width="1098" height="24.65" shape-rendering="crispEdges"/><rect fill="#2d2d2d" x="0" y="25.9" width="231.8" height="24.65" shape-rendering="crispEdges"/><rect fill="#2d2d2d" x="231.8" y="25.9" width="73.2" height="24.65" shape-rendering="crispEdges"/><rect fill="#2d2d2d" x="305" y="25.9" width="146.4" height="24.65" shape-rendering="crispEdges"/><rect fill="#191919" x="451.4" y="25.9" width="12.2" height="24.65" shape-rendering="crispEdges"/><rect fill="#1e1e1e" x="463.6" y="25.9" width="963.8" height="24.65" shape-rendering="crispEdges"/><rect fill="#121212" x="1427.4" y="25.9" width="12.2" height="24.65" shape-rendering="crispEdges"/><rect fill="#333333" x="0" y="50.3" width="231.8" height="24.65" shape-rendering="crispEdges"/><rect fill="#333333" x="231.8" y="50.3" width="73.2" height="24.65" shape-rendering="crispEdges"/><rect fill="#333333" x="305" y="50.3" width="146.4" height="24.65" shape-rendering="crispEdges"/><rect fill="#191919" x="451.4" y="50.3" width="12.2" height="24.65" shape-rendering="crispEdges"/><rect fill="#1e1e1e" x="463.6" y="50.3" width="12.2" height="24.65" shape-rendering="crispEdges"/><rect fill="#262626" x="475.8" y="50.3" width="939.4" height="24.65" shape-rendering="crispEdges"/><rect fill="#1e1e1e" x="1415.2" y="50.3" width="12.2" height="24.65" shape-rendering="crispEdges"/><rect fill="#121212" x="1427.4" y="50.3" width="12.2" height="24.65" shape-rendering="crispEdges"/><rect fill="#1e1e1e" x="0" y="74.7" width="231.8" height="24.65" shape-rendering="crispEdges"/><rect fill="#1e1e1e" x="231.8" y="74.7" width="73.2" height="24.65" shape-rendering="crispEdges"/><rect fill="#1e1e1e" x="305" y="74.7" width="146.4" height="24.65" shape-rendering="crispEdges"/><rect fill="#191919" x="451.4" y="74.7" width="12.2" height="24.65" shape-rendering="crispEdges"/><rect fill="#1e1e1e" x="463.6" y="74.7" width="12.2" height="24.65" shape-rendering="crispEdges"/><rect fill="#1e1e1e" x="475.8" y="74.7" width="939.4" height="24.65" shape-rendering="crispEdges"/><rect fill="#1e1e1e" x="1415.2" y="74.7" width="12.2" height="24.65" shape-rendering="crispEdges"/><rect fill="#121212" x="1427.4" y="74.7" width="12.2" height="24.65" shape-rendering="crispEdges"/><rect fill="#1e1e1e" x="0" y="99.1" width="231.8" height="24.65" shape-rendering="crispEdges"/><rect fill="#1e1e1e" x="231.8" y="99.1" width="73.2" height="24.65" shape-rendering="crispEdges"/><rect fill="#1e1e1e" x="305" y="99.1" width="146.4" height="24.65" shape-rendering="crispEdges"/><rect fill="#191919" x="451.4" y="99.1" width="12.2" height="24.65" shape-rendering="crispEdges"/><rect fill="#1e1e1e" x="463.6" y="99.1" width="12.2" height="24.65" shape-rendering="crispEdges"/><rect fill="#1e1e1e" x="475.8" y="99.1" width="939.4" height="24.65" shape-rendering="crispEdges"/><rect fill="#1e1e1e" x="1415.2" y="99.1" width="12.2" height="24.65" shape-rendering="crispEdges"/><rect fill="#121212" x="1427.4" y="99.1" width="12.2" height="24.65" shape-rendering="crispEdges"/><rect fill="#282828" x="0" y="123.5" width="268.4" height="24.65" shape-rendering="crispEdges"/><rect fill="#000000" x="268.4" y="123.5" width="12.2" height="24.65" shape-rendering="crispEdges"/><rect fill="#000000" x="280.6" y="123.5" width="170.8" height="24.65" shape-rendering="crispEdges"/><rect fill="#191919" x="451.4" y="123.5" width="12.2" height="24.65" shape-rendering="crispEdges"/><rect fill="#1e1e1e" x="463.6" y="123.5" width="12.2" height="24.65" shape-rendering="crispEdges"/><rect fill="#1e1e1e" x="475.8" y="123.5" width="939.4" height="24.65" shape-rendering="crispEdges"/><rect fill="#1e1e1e" x="1415.2" y="123.5" width="12.2" height="24.65" shape-rendering="crispEdges"/><rect fill="#121212" x="1427.4" y="123.5" width="12.2" height="24.65" shape-rendering="crispEdges"/><rect fill="#2d2d2d" x="0" y="147.9" width="61" height="24.65" shape-rendering="crispEdges"/><rect fill="#2d2d2d" x="61" y="147.9" width="61" height="24.65" shape-rendering="crispEdges"/><rect fill="#2d2d2d" x="122" y="147.9" width="109.8" height="24.65" shape-rendering="crispEdges"/><rect fill="#2d2d2d" x="231.8" y="147.9" width="73.2" height="24.65" shape-rendering="crispEdges"/><rect fill="#2d2d2d" x="305" y="147.9" width="146.4" height="24.65" shape-rendering="crispEdges"/><rect fill="#191919" x="451.4" y="147.9" width="12.2" height="24.65" shape-rendering="crispEdges"/><rect fill="#1e1e1e" x="463.6" y="147.9" width="12.2" height="24.65" shape-rendering="crispEdges"/><rect fill="#1e1e1e" x="475.8" y="147.9" width="939.4" height="24.65" shape-rendering="crispEdges"/><rect fill="#1e1e1e" x="1415.2" y="147.9" width="12.2" height="24.65" shape-rendering="crispEdges"/><rect fill="#121212" x="1427.4" y="147.9" width="12.2" height="24.65" shape-rendering="crispEdges"/><rect fill="#333333" x="0" y="172.3" width="61" height="24.65" shape-rendering="crispEdges"/><rect fill="#333333" x="61" y="172.3" width="61" height="24.65" shape-rendering="crispEdges"/><rect fill="#333333" x="122" y="172.3" width="109.8" height="24.65" shape-rendering="crispEdges"/><rect fill="#333333" x="231.8" y="172.3" width="73.2" height="24.65" shape-rendering="crispEdges"/><rect fill="#333333" x="305" y="172.3" width="146.4" height="24.65" shape-rendering="crispEdges"/><rect fill="#191919" x="451.4" y="172.3" width="12.2" height="24.65" shape-rendering="crispEdges"/><rect fill="#1e1e1e" x="463.6" y="172.3" width="12.2" height="24.65" shape-rendering="crispEdges"/><rect fill="#1e1e1e" x="475.8" y="172.3" width="939.4" height="24.65" shape-rendering="crispEdges"/><rect fill="#1e1e1e" x="1415.2" y="172.3" width="12.2" height="24.65" shape-rendering="crispEdges"/><rect fill="#121212" x="1427.4" y="172.3" width="12.2" height="24.65" shape-rendering="crispEdges"/><rect fill="#1e1e1e" x="0" y="196.7" width="451.4" height="24.65" shape-rendering="crispEdges"/><rect fill="#191919" x="451.4" y="196.7" width="12.2" height="24.65" shape-rendering="crispEdges"/><rect fill="#1e1e1e" x="463.6" y="196.7" width="963.8" height="24.65" shape-rendering="crispEdges"/><rect fill="#121212" x="1427.4" y="196.7" width="12.2" height="24.65" shape-rendering="crispEdges"/><rect fill="#1e1e1e" x="0" y="221.1" width="451.4" height="24.65" shape-rendering="crispEdges"/><rect fill="#121212" x="451.4" y="221.1" width="73.2" height="24.65" shape-rendering="crispEdges"/><rect fill="#121212" x="524.6" y="221.1" width="915" height="24.65" shape-rendering="crispEdges"/><rect fill="#1e1e1e" x="0" y="245.5" width="451.4" height="24.65" shape-rendering="crispEdges"/><rect fill="#363636" x="451.4" y="245.5" width="183" height="24.65" shape-rendering="crispEdges"/><rect fill="#363636" x="634.4" y="245.5" width="195.2" height="24.65" shape-rendering="crispEdges"/><rect fill="#323232" x="829.6" y="245.5" width="610" height="24.65" shape-rendering="crispEdges"/><rect fill="#1e1e1e" x="0" y="269.9" width="451.4" height="24.65" shape-rendering="crispEdges"/><rect fill="#656565" x="451.4" y="269.9" width="183" height="24.65" shape-rendering="crispEdges"/><rect fill="#272727" x="634.4" y="269.9" width="195.2" height="24.65" shape-rendering="crispEdges"/><rect fill="#272727" x="829.6" y="269.9" width="610" height="24.65" shape-rendering="crispEdges"/><rect fill="#1e1e1e" x="0" y="294.3" width="451.4" height="24.65" shape-rendering="crispEdges"/><rect fill="#272727" x="451.4" y="294.3" width="183" height="24.65" shape-rendering="crispEdges"/><rect fill="#272727" x="634.4" y="294.3" width="195.2" height="24.65" shape-rendering="crispEdges"/><rect fill="#272727" x="829.6" y="294.3" width="610" height="24.65" shape-rendering="crispEdges"/><rect fill="#1e1e1e" x="0" y="318.7" width="451.4" height="24.65" shape-rendering="crispEdges"/><rect fill="#272727" x="451.4" y="318.7" width="183" height="24.65" shape-rendering="crispEdges"/><rect fill="#272727" x="634.4" y="318.7" width="195.2" height="24.65" shape-rendering="crispEdges"/><rect fill="#272727" x="829.6" y="318.7" width="610" height="24.65" shape-rendering="crispEdges"/><rect fill="#1e1e1e" x="0" y="343.1" width="451.4" height="24.65" shape-rendering="crispEdges"/><rect fill="#272727" x="451.4" y="343.1" width="183" height="24.65" shape-rendering="crispEdges"/><rect fill="#272727" x="634.4" y="343.1" width="195.2" height="24.65" shape-rendering="crispEdges"/><rect fill="#272727" x="829.6" y="343.1" width="610" height="24.65" shape-rendering="crispEdges"/><rect fill="#1e1e1e" x="0" y="367.5" width="451.4" height="24.65" shape-rendering="crispEdges"/><rect fill="#272727" x="451.4" y="367.5" width="183" height="24.65" shape-rendering="crispEdges"/><rect fill="#272727" x="634.4" y="367.5" width="195.2" height="24.65" shape-rendering="crispEdges"/><rect fill="#272727" x="829.6" y="367.5" width="610" height="24.65" shape-rendering="crispEdges"/><rect fill="#1e1e1e" x="0" y="391.9" width="451.4" height="24.65" shape-rendering="crispEdges"/><rect fill="#272727" x="451.4" y="391.9" width="988.2" height="24.65" shape-rendering="crispEdges"/><rect fill="#1e1e1e" x="0" y="416.3" width="451.4" height="24.65" shape-rendering="crispEdges"/><rect fill="#272727" x="451.4" y="416.3" width="988.2" height="24.65" shape-rendering="crispEdges"/><rect fill="#1e1e1e" x="0" y="440.7" width="451.4" height="24.65" shape-rendering="crispEdges"/><rect fill="#272727" x="451.4" y="440.7" width="988.2" height="24.65" shape-rendering="crispEdges"/><rect fill="#1e1e1e" x="0" y="465.1" width="451.4" height="24.65" shape-rendering="crispEdges"/><rect fill="#272727" x="451.4" y="465.1" width="988.2" height="24.65" shape-rendering="crispEdges"/><rect fill="#1e1e1e" x="0" y="489.5" width="451.4" height="24.65" shape-rendering="crispEdges"/><rect fill="#272727" x="451.4" y="489.5" width="988.2" height="24.65" shape-rendering="crispEdges"/><rect fill="#1e1e1e" x="0" y="513.9" width="451.4" height="24.65" shape-rendering="crispEdges"/><rect fill="#272727" x="451.4" y="513.9" width="988.2" height="24.65" shape-rendering="crispEdges"/><rect fill="#1e1e1e" x="0" y="538.3" width="451.4" height="24.65" shape-rendering="crispEdges"/><rect fill="#272727" x="451.4" y="538.3" width="988.2" height="24.65" shape-rendering="crispEdges"/><rect fill="#1e1e1e" x="0" y="562.7" width="451.4" height="24.65" shape-rendering="crispEdges"/><rect fill="#272727" x="451.4" y="562.7" width="988.2" height="24.65" shape-rendering="crispEdges"/><rect fill="#1e1e1e" x="0" y="587.1" width="451.4" height="24.65" shape-rendering="crispEdges"/><rect fill="#272727" x="451.4" y="587.1" width="988.2" height="24.65" shape-rendering="crispEdges"/><rect fill="#1e1e1e" x="0" y="611.5" width="451.4" height="24.65" shape-rendering="crispEdges"/><rect fill="#272727" x="451.4" y="611.5" width="988.2" height="24.65" shape-rendering="crispEdges"/><rect fill="#1e1e1e" x="0" y="635.9" width="451.4" height="24.65" shape-rendering="crispEdges"/><rect fill="#272727" x="451.4" y="635.9" width="988.2" height="24.65" shape-rendering="crispEdges"/><rect fill="#1e1e1e" x="0" y="660.3" width="451.4" height="24.65" shape-rendering="crispEdges"/><rect fill="#272727" x="451.4" y="660.3" width="988.2" height="24.65" shape-rendering="crispEdges"/><rect fill="#1e1e1e" x="0" y="684.7" width="451.4" height="24.65" shape-rendering="crispEdges"/><rect fill="#272727" x="451.4" y="684.7" width="988.2" height="24.65" shape-rendering="crispEdges"/><rect fill="#1e1e1e" x="0" y="709.1" width="451.4" height="24.65" shape-rendering="crispEdges"/><rect fill="#272727" x="451.4" y="709.1" width="988.2" height="24.65" shape-rendering="crispEdges"/><rect fill="#1e1e1e" x="0" y="733.5" width="451.4" height="24.65" shape-rendering="crispEdges"/><rect fill="#272727" x="451.4" y="733.5" width="988.2" height="24.65" shape-rendering="crispEdges"/><rect fill="#1e1e1e" x="0" y="757.9" width="451.4" height="24.65" shape-rendering="crispEdges"/><rect fill="#272727" x="451.4" y="757.9" width="988.2" height="24.65" shape-rendering="crispEdges"/><rect fill="#282828" x="0" y="782.3" width="109.8" height="24.65" shape-rendering="crispEdges"/><rect fill="#000000" x="109.8" y="782.3" width="12.2" height="24.65" shape-rendering="crispEdges"/><rect fill="#000000" x="122" y="782.3" width="329.4" height="24.65" shape-rendering="crispEdges"/><rect fill="#121212" x="451.4" y="782.3" width="317.2" height="24.65" shape-rendering="crispEdges"/><rect fill="#121212" x="768.6" y="782.3" width="671" height="24.65" shape-rendering="crispEdges"/><rect fill="#2d2d2d" x="0" y="806.7" width="48.8" height="24.65" shape-rendering="crispEdges"/><rect fill="#2d2d2d" x="48.8" y="806.7" width="61" height="24.65" shape-rendering="crispEdges"/><rect fill="#2d2d2d" x="109.8" y="806.7" width="36.6" height="24.65" shape-rendering="crispEdges"/><rect fill="#2d2d2d" x="146.4" y="806.7" width="61" height="24.65" shape-rendering="crispEdges"/><rect fill="#2d2d2d" x="207.4" y="806.7" width="48.8" height="24.65" shape-rendering="crispEdges"/><rect fill="#2d2d2d" x="256.2" y="806.7" width="48.8" height="24.65" shape-rendering="crispEdges"/><rect fill="#2d2d2d" x="305" y="806.7" width="183" height="24.65" shape-rendering="crispEdges"/><rect fill="#2d2d2d" x="488" y="806.7" width="97.6" height="24.65" shape-rendering="crispEdges"/><rect fill="#2d2d2d" x="585.6" y="806.7" width="61" height="24.65" shape-rendering="crispEdges"/><rect fill="#2d2d2d" x="646.6" y="806.7" width="97.6" height="24.65" shape-rendering="crispEdges"/><rect fill="#2d2d2d" x="744.2" y="806.7" width="48.8" height="24.65" shape-rendering="crispEdges"/><rect fill="#2d2d2d" x="793" y="806.7" width="97.6" height="24.65" shape-rendering="crispEdges"/><rect fill="#2d2d2d" x="890.6" y="806.7" width="48.8" height="24.65" shape-rendering="crispEdges"/><rect fill="#2d2d2d" x="939.4" y="806.7" width="97.6" height="24.65" shape-rendering="crispEdges"/><rect fill="#2d2d2d" x="1037" y="806.7" width="48.8" height="24.65" shape-rendering="crispEdges"/><rect fill="#2d2d2d" x="1085.8" y="806.7" width="170.8" height="24.65" shape-rendering="crispEdges"/><rect fill="#2d2d2d" x="1256.6" y="806.7" width="36.6" height="24.65" shape-rendering="crispEdges"/><rect fill="#2d2d2d" x="1293.2" y="806.7" width="12.2" height="24.65" shape-rendering="crispEdges"/><rect fill="#2d2d2d" x="1305.4" y="806.7" width="24.4" height="24.65" shape-rendering="crispEdges"/><rect fill="#2d2d2d" x="1329.8" y="806.7" width="97.6" height="24.65" shape-rendering="crispEdges"/><rect fill="#2d2d2d" x="1427.4" y="806.7" width="12.2" height="24.65" shape-rendering="crispEdges"/>
    <g class="terminal-484838164-matrix">
    <text class="terminal-484838164-r1" x="0" y="20" textLength="341.6" clip-path="url(#terminal-484838164-line-0)">5&#160;returned&#160;row(s)&#160;in&#160;1.8&#160;ms.</text><text class="terminal-484838164-r2" x="1439.6" y="20" textLength="12.2" clip-path="url(#terminal-484838164-line-0)">
</text><text class="terminal-484838164-r3" x="0" y="44.4" textLength="231.8" clip-path="url(#terminal-484838164-line-1)">&#160;alias&#160;&#160;&#160;&#160;&#160;&#160;&#160;&#160;&#160;&#160;&#160;&#160;&#160;</text><text class="terminal-484838164-r3" x="231.8" y="44.4" textLength="73.2" clip-path="url(#terminal-484838164-line-1)">&#160;kind&#160;</text><text class="terminal-484838164-r3" x="305" y="44.4" textLength="146.4" clip-path="url(#terminal-484838164-line-1)">&#160;path&#160;&#160;&#160;&#160;&#160;&#160;&#160;</text><text class="terminal-484838164-r4" x="451.4" y="44.4" textLength="12.2" clip-path="url(#terminal-484838164-line-1)">▊</text><text class="terminal-484838164-r5" x="463.6" y="44.4" textLength="963.8" clip-path="url(#terminal-484838164-line-1)">▔▔▔▔▔▔▔▔▔▔▔▔▔▔▔▔▔▔▔▔▔▔▔▔▔▔▔▔▔▔▔▔▔▔▔▔▔▔▔▔▔▔▔▔▔▔▔▔▔▔▔▔▔▔▔▔▔▔▔▔▔▔▔▔▔▔▔▔▔▔▔▔▔▔▔▔▔▔▔</text><text class="terminal-484838164-r5" x="1427.4" y="44.4" textLength="12.2" clip-path="url(#terminal-484838164-line-1)">▎</text><text class="terminal-484838164-r2" x="1439.6" y="44.4" textLength="12.2" clip-path="url(#terminal-484838164-line-1)">
</text><text class="terminal-484838164-r1" x="0" y="68.8" textLength="231.8" clip-path="url(#terminal-484838164-line-2)">&#160;customers&#160;&#160;&#160;&#160;&#160;&#160;&#160;&#160;&#160;</text><text class="terminal-484838164-r1" x="231.8" y="68.8" textLength="73.2" clip-path="url(#terminal-484838164-line-2)">&#160;csv&#160;&#160;</text><text class="terminal-484838164-r1" x="305" y="68.8" textLength="146.4" clip-path="url(#terminal-484838164-line-2)">&#160;data/custom</text><text class="terminal-484838164-r4" x="451.4" y="68.8" textLength="12.2" clip-path="url(#terminal-484838164-line-2)">▊</text><text class="terminal-484838164-r1" x="475.8" y="68.8" textLength="939.4" clip-path="url(#terminal-484838164-line-2)">SELECT&#160;movement_type,&#160;SUM(mrr_delta)&#160;AS&#160;net_mrr_change&#160;&#160;&#160;&#160;&#160;&#160;&#160;&#160;&#160;&#160;&#160;&#160;&#160;&#160;&#160;&#160;&#160;&#160;&#160;&#160;&#160;&#160;&#160;</text><text class="terminal-484838164-r5" x="1427.4" y="68.8" textLength="12.2" clip-path="url(#terminal-484838164-line-2)">▎</text><text class="terminal-484838164-r2" x="1439.6" y="68.8" textLength="12.2" clip-path="url(#terminal-484838164-line-2)">
</text><text class="terminal-484838164-r1" x="0" y="93.2" textLength="231.8" clip-path="url(#terminal-484838164-line-3)">&#160;subscriptions&#160;&#160;&#160;&#160;&#160;</text><text class="terminal-484838164-r1" x="231.8" y="93.2" textLength="73.2" clip-path="url(#terminal-484838164-line-3)">&#160;csv&#160;&#160;</text><text class="terminal-484838164-r1" x="305" y="93.2" textLength="146.4" clip-path="url(#terminal-484838164-line-3)">&#160;data/subscr</text><text class="terminal-484838164-r4" x="451.4" y="93.2" textLength="12.2" clip-path="url(#terminal-484838164-line-3)">▊</text><text class="terminal-484838164-r1" x="475.8" y="93.2" textLength="939.4" clip-path="url(#terminal-484838164-line-3)">FROM&#160;revenue_movements&#160;&#160;&#160;&#160;&#160;&#160;&#160;&#160;&#160;&#160;&#160;&#160;&#160;&#160;&#160;&#160;&#160;&#160;&#160;&#160;&#160;&#160;&#160;&#160;&#160;&#160;&#160;&#160;&#160;&#160;&#160;&#160;&#160;&#160;&#160;&#160;&#160;&#160;&#160;&#160;&#160;&#160;&#160;&#160;&#160;&#160;&#160;&#160;&#160;&#160;&#160;&#160;&#160;&#160;&#160;</text><text class="terminal-484838164-r5" x="1427.4" y="93.2" textLength="12.2" clip-path="url(#terminal-484838164-line-3)">▎</text><text class="terminal-484838164-r2" x="1439.6" y="93.2" textLength="12.2" clip-path="url(#terminal-484838164-line-3)">
</text><text class="terminal-484838164-r1" x="0" y="117.6" textLength="231.8" clip-path="url(#terminal-484838164-line-4)">&#160;revenue_movements&#160;</text><text class="terminal-484838164-r1" x="231.8" y="117.6" textLength="73.2" clip-path="url(#terminal-484838164-line-4)">&#160;csv&#160;&#160;</text><text class="terminal-484838164-r1" x="305" y="117.6" textLength="146.4" clip-path="url(#terminal-484838164-line-4)">&#160;data/revenu</text><text class="terminal-484838164-r4" x="451.4" y="117.6" textLength="12.2" clip-path="url(#terminal-484838164-line-4)">▊</text><text class="terminal-484838164-r1" x="475.8" y="117.6" textLength="939.4" clip-path="url(#terminal-484838164-line-4)">GROUP&#160;BY&#160;movement_type&#160;&#160;&#160;&#160;&#160;&#160;&#160;&#160;&#160;&#160;&#160;&#160;&#160;&#160;&#160;&#160;&#160;&#160;&#160;&#160;&#160;&#160;&#160;&#160;&#160;&#160;&#160;&#160;&#160;&#160;&#160;&#160;&#160;&#160;&#160;&#160;&#160;&#160;&#160;&#160;&#160;&#160;&#160;&#160;&#160;&#160;&#160;&#160;&#160;&#160;&#160;&#160;&#160;&#160;&#160;</text><text class="terminal-484838164-r5" x="1427.4" y="117.6" textLength="12.2" clip-path="url(#terminal-484838164-line-4)">▎</text><text class="terminal-484838164-r2" x="1439.6" y="117.6" textLength="12.2" clip-path="url(#terminal-484838164-line-4)">
</text><text class="terminal-484838164-r7" x="268.4" y="142" textLength="12.2" clip-path="url(#terminal-484838164-line-5)">▏</text><text class="terminal-484838164-r4" x="451.4" y="142" textLength="12.2" clip-path="url(#terminal-484838164-line-5)">▊</text><text class="terminal-484838164-r1" x="475.8" y="142" textLength="939.4" clip-path="url(#terminal-484838164-line-5)">ORDER&#160;BY&#160;movement_type;&#160;&#160;&#160;&#160;&#160;&#160;&#160;&#160;&#160;&#160;&#160;&#160;&#160;&#160;&#160;&#160;&#160;&#160;&#160;&#160;&#160;&#160;&#160;&#160;&#160;&#160;&#160;&#160;&#160;&#160;&#160;&#160;&#160;&#160;&#160;&#160;&#160;&#160;&#160;&#160;&#160;&#160;&#160;&#160;&#160;&#160;&#160;&#160;&#160;&#160;&#160;&#160;&#160;&#160;</text><text class="terminal-484838164-r5" x="1427.4" y="142" textLength="12.2" clip-path="url(#terminal-484838164-line-5)">▎</text><text class="terminal-484838164-r2" x="1439.6" y="142" textLength="12.2" clip-path="url(#terminal-484838164-line-5)">
</text><text class="terminal-484838164-r3" x="0" y="166.4" textLength="61" clip-path="url(#terminal-484838164-line-6)">&#160;seq&#160;</text><text class="terminal-484838164-r3" x="61" y="166.4" textLength="61" clip-path="url(#terminal-484838164-line-6)">&#160;run&#160;</text><text class="terminal-484838164-r3" x="122" y="166.4" textLength="109.8" clip-path="url(#terminal-484838164-line-6)">&#160;status&#160;&#160;</text><text class="terminal-484838164-r3" x="231.8" y="166.4" textLength="73.2" clip-path="url(#terminal-484838164-line-6)">&#160;rows&#160;</text><text class="terminal-484838164-r3" x="305" y="166.4" textLength="146.4" clip-path="url(#terminal-484838164-line-6)">&#160;sql&#160;&#160;&#160;&#160;&#160;&#160;&#160;&#160;</text><text class="terminal-484838164-r4" x="451.4" y="166.4" textLength="12.2" clip-path="url(#terminal-484838164-line-6)">▊</text><text class="terminal-484838164-r5" x="1427.4" y="166.4" textLength="12.2" clip-path="url(#terminal-484838164-line-6)">▎</text><text class="terminal-484838164-r2" x="1439.6" y="166.4" textLength="12.2" clip-path="url(#terminal-484838164-line-6)">
</text><text class="terminal-484838164-r1" x="0" y="190.8" textLength="61" clip-path="url(#terminal-484838164-line-7)">&#160;1&#160;&#160;&#160;</text><text class="terminal-484838164-r1" x="61" y="190.8" textLength="61" clip-path="url(#terminal-484838164-line-7)">&#160;sql&#160;</text><text class="terminal-484838164-r1" x="122" y="190.8" textLength="109.8" clip-path="url(#terminal-484838164-line-7)">&#160;success&#160;</text><text class="terminal-484838164-r1" x="231.8" y="190.8" textLength="73.2" clip-path="url(#terminal-484838164-line-7)">&#160;5&#160;&#160;&#160;&#160;</text><text class="terminal-484838164-r1" x="305" y="190.8" textLength="146.4" clip-path="url(#terminal-484838164-line-7)">&#160;SELECT&#160;move</text><text class="terminal-484838164-r4" x="451.4" y="190.8" textLength="12.2" clip-path="url(#terminal-484838164-line-7)">▊</text><text class="terminal-484838164-r5" x="1427.4" y="190.8" textLength="12.2" clip-path="url(#terminal-484838164-line-7)">▎</text><text class="terminal-484838164-r2" x="1439.6" y="190.8" textLength="12.2" clip-path="url(#terminal-484838164-line-7)">
</text><text class="terminal-484838164-r4" x="451.4" y="215.2" textLength="12.2" clip-path="url(#terminal-484838164-line-8)">▊</text><text class="terminal-484838164-r5" x="463.6" y="215.2" textLength="963.8" clip-path="url(#terminal-484838164-line-8)">▁▁▁▁▁▁▁▁▁▁▁▁▁▁▁▁▁▁▁▁▁▁▁▁▁▁▁▁▁▁▁▁▁▁▁▁▁▁▁▁▁▁▁▁▁▁▁▁▁▁▁▁▁▁▁▁▁▁▁▁▁▁▁▁▁▁▁▁▁▁▁▁▁▁▁▁▁▁▁</text><text class="terminal-484838164-r5" x="1427.4" y="215.2" textLength="12.2" clip-path="url(#terminal-484838164-line-8)">▎</text><text class="terminal-484838164-r2" x="1439.6" y="215.2" textLength="12.2" clip-path="url(#terminal-484838164-line-8)">
</text><text class="terminal-484838164-r1" x="451.4" y="239.6" textLength="73.2" clip-path="url(#terminal-484838164-line-9)">Ready.</text><text class="terminal-484838164-r2" x="1439.6" y="239.6" textLength="12.2" clip-path="url(#terminal-484838164-line-9)">
</text><text class="terminal-484838164-r3" x="451.4" y="264" textLength="183" clip-path="url(#terminal-484838164-line-10)">&#160;movement_type&#160;</text><text class="terminal-484838164-r3" x="634.4" y="264" textLength="195.2" clip-path="url(#terminal-484838164-line-10)">&#160;net_mrr_change&#160;</text><text class="terminal-484838164-r2" x="1439.6" y="264" textLength="12.2" clip-path="url(#terminal-484838164-line-10)">
</text><text class="terminal-484838164-r8" x="451.4" y="288.4" textLength="183" clip-path="url(#terminal-484838164-line-11)">&#160;churn&#160;&#160;&#160;&#160;&#160;&#160;&#160;&#160;&#160;</text><text class="terminal-484838164-r1" x="634.4" y="288.4" textLength="195.2" clip-path="url(#terminal-484838164-line-11)">&#160;-250.0&#160;&#160;&#160;&#160;&#160;&#160;&#160;&#160;&#160;</text><text class="terminal-484838164-r2" x="1439.6" y="288.4" textLength="12.2" clip-path="url(#terminal-484838164-line-11)">
</text><text class="terminal-484838164-r1" x="451.4" y="312.8" textLength="183" clip-path="url(#terminal-484838164-line-12)">&#160;contraction&#160;&#160;&#160;</text><text class="terminal-484838164-r1" x="634.4" y="312.8" textLength="195.2" clip-path="url(#terminal-484838164-line-12)">&#160;-25.0&#160;&#160;&#160;&#160;&#160;&#160;&#160;&#160;&#160;&#160;</text><text class="terminal-484838164-r2" x="1439.6" y="312.8" textLength="12.2" clip-path="url(#terminal-484838164-line-12)">
</text><text class="terminal-484838164-r1" x="451.4" y="337.2" textLength="183" clip-path="url(#terminal-484838164-line-13)">&#160;expansion&#160;&#160;&#160;&#160;&#160;</text><text class="terminal-484838164-r1" x="634.4" y="337.2" textLength="195.2" clip-path="url(#terminal-484838164-line-13)">&#160;125.0&#160;&#160;&#160;&#160;&#160;&#160;&#160;&#160;&#160;&#160;</text><text class="terminal-484838164-r2" x="1439.6" y="337.2" textLength="12.2" clip-path="url(#terminal-484838164-line-13)">
</text><text class="terminal-484838164-r1" x="451.4" y="361.6" textLength="183" clip-path="url(#terminal-484838164-line-14)">&#160;new&#160;&#160;&#160;&#160;&#160;&#160;&#160;&#160;&#160;&#160;&#160;</text><text class="terminal-484838164-r1" x="634.4" y="361.6" textLength="195.2" clip-path="url(#terminal-484838164-line-14)">&#160;1000.0&#160;&#160;&#160;&#160;&#160;&#160;&#160;&#160;&#160;</text><text class="terminal-484838164-r2" x="1439.6" y="361.6" textLength="12.2" clip-path="url(#terminal-484838164-line-14)">
</text><text class="terminal-484838164-r1" x="451.4" y="386" textLength="183" clip-path="url(#terminal-484838164-line-15)">&#160;reactivation&#160;&#160;</text><text class="terminal-484838164-r1" x="634.4" y="386" textLength="195.2" clip-path="url(#terminal-484838164-line-15)">&#160;100.0&#160;&#160;&#160;&#160;&#160;&#160;&#160;&#160;&#160;&#160;</text><text class="terminal-484838164-r2" x="1439.6" y="386" textLength="12.2" clip-path="url(#terminal-484838164-line-15)">
</text><text class="terminal-484838164-r2" x="1439.6" y="410.4" textLength="12.2" clip-path="url(#terminal-484838164-line-16)">
</text><text class="terminal-484838164-r2" x="1439.6" y="434.8" textLength="12.2" clip-path="url(#terminal-484838164-line-17)">
</text><text class="terminal-484838164-r2" x="1439.6" y="459.2" textLength="12.2" clip-path="url(#terminal-484838164-line-18)">
</text><text class="terminal-484838164-r2" x="1439.6" y="483.6" textLength="12.2" clip-path="url(#terminal-484838164-line-19)">
</text><text class="terminal-484838164-r2" x="1439.6" y="508" textLength="12.2" clip-path="url(#terminal-484838164-line-20)">
</text><text class="terminal-484838164-r2" x="1439.6" y="532.4" textLength="12.2" clip-path="url(#terminal-484838164-line-21)">
</text><text class="terminal-484838164-r2" x="1439.6" y="556.8" textLength="12.2" clip-path="url(#terminal-484838164-line-22)">
</text><text class="terminal-484838164-r2" x="1439.6" y="581.2" textLength="12.2" clip-path="url(#terminal-484838164-line-23)">
</text><text class="terminal-484838164-r2" x="1439.6" y="605.6" textLength="12.2" clip-path="url(#terminal-484838164-line-24)">
</text><text class="terminal-484838164-r2" x="1439.6" y="630" textLength="12.2" clip-path="url(#terminal-484838164-line-25)">
</text><text class="terminal-484838164-r2" x="1439.6" y="654.4" textLength="12.2" clip-path="url(#terminal-484838164-line-26)">
</text><text class="terminal-484838164-r2" x="1439.6" y="678.8" textLength="12.2" clip-path="url(#terminal-484838164-line-27)">
</text><text class="terminal-484838164-r2" x="1439.6" y="703.2" textLength="12.2" clip-path="url(#terminal-484838164-line-28)">
</text><text class="terminal-484838164-r2" x="1439.6" y="727.6" textLength="12.2" clip-path="url(#terminal-484838164-line-29)">
</text><text class="terminal-484838164-r2" x="1439.6" y="752" textLength="12.2" clip-path="url(#terminal-484838164-line-30)">
</text><text class="terminal-484838164-r2" x="1439.6" y="776.4" textLength="12.2" clip-path="url(#terminal-484838164-line-31)">
</text><text class="terminal-484838164-r7" x="109.8" y="800.8" textLength="12.2" clip-path="url(#terminal-484838164-line-32)">▎</text><text class="terminal-484838164-r1" x="451.4" y="800.8" textLength="317.2" clip-path="url(#terminal-484838164-line-32)">Showing&#160;5&#160;returned&#160;row(s).</text><text class="terminal-484838164-r2" x="1439.6" y="800.8" textLength="12.2" clip-path="url(#terminal-484838164-line-32)">
</text><text class="terminal-484838164-r9" x="0" y="825.2" textLength="48.8" clip-path="url(#terminal-484838164-line-33)">&#160;f1&#160;</text><text class="terminal-484838164-r1" x="48.8" y="825.2" textLength="61" clip-path="url(#terminal-484838164-line-33)">Help&#160;</text><text class="terminal-484838164-r9" x="109.8" y="825.2" textLength="36.6" clip-path="url(#terminal-484838164-line-33)">&#160;?&#160;</text><text class="terminal-484838164-r1" x="146.4" y="825.2" textLength="61" clip-path="url(#terminal-484838164-line-33)">Help&#160;</text><text class="terminal-484838164-r9" x="207.4" y="825.2" textLength="48.8" clip-path="url(#terminal-484838164-line-33)">&#160;f2&#160;</text><text class="terminal-484838164-r1" x="256.2" y="825.2" textLength="48.8" clip-path="url(#terminal-484838164-line-33)">SQL&#160;</text><text class="terminal-484838164-r9" x="305" y="825.2" textLength="183" clip-path="url(#terminal-484838164-line-33)">&#160;F4/Ctrl+Enter&#160;</text><text class="terminal-484838164-r1" x="488" y="825.2" textLength="97.6" clip-path="url(#terminal-484838164-line-33)">Run&#160;SQL&#160;</text><text class="terminal-484838164-r9" x="585.6" y="825.2" textLength="61" clip-path="url(#terminal-484838164-line-33)">&#160;F12&#160;</text><text class="terminal-484838164-r1" x="646.6" y="825.2" textLength="97.6" clip-path="url(#terminal-484838164-line-33)">Run&#160;All&#160;</text><text class="terminal-484838164-r9" x="744.2" y="825.2" textLength="48.8" clip-path="url(#terminal-484838164-line-33)">&#160;f5&#160;</text><text class="terminal-484838164-r1" x="793" y="825.2" textLength="97.6" clip-path="url(#terminal-484838164-line-33)">Results&#160;</text><text class="terminal-484838164-r9" x="890.6" y="825.2" textLength="48.8" clip-path="url(#terminal-484838164-line-33)">&#160;f6&#160;</text><text class="terminal-484838164-r1" x="939.4" y="825.2" textLength="97.6" clip-path="url(#terminal-484838164-line-33)">Sources&#160;</text><text class="terminal-484838164-r9" x="1037" y="825.2" textLength="48.8" clip-path="url(#terminal-484838164-line-33)">&#160;f7&#160;</text><text class="terminal-484838164-r1" x="1085.8" y="825.2" textLength="170.8" clip-path="url(#terminal-484838164-line-33)">Export&#160;result&#160;</text><text class="terminal-484838164-r9" x="1256.6" y="825.2" textLength="36.6" clip-path="url(#terminal-484838164-line-33)">&#160;f8</text><text class="terminal-484838164-r10" x="1293.2" y="825.2" textLength="12.2" clip-path="url(#terminal-484838164-line-33)">▏</text><text class="terminal-484838164-r9" x="1305.4" y="825.2" textLength="24.4" clip-path="url(#terminal-484838164-line-33)">^p</text><text class="terminal-484838164-r1" x="1329.8" y="825.2" textLength="97.6" clip-path="url(#terminal-484838164-line-33)">&#160;palette</text>
    </g>
    </g>
</svg>
